<?xml version="1.0" standalone="no"?>
<!DOCTYPE svg PUBLIC "-//W3C//DTD SVG 20010904//EN"
 "http://www.w3.org/TR/2001/REC-SVG-20010904/DTD/svg10.dtd">
<svg version="1.0" xmlns="http://www.w3.org/2000/svg"
 width="400.000000pt" height="400.000000pt" viewBox="0 0 400.000000 400.000000"
 preserveAspectRatio="xMidYMid meet">
<metadata>
Created by potrace 1.14, written by Peter Selinger 2001-2017
</metadata>
<g transform="translate(0.000000,400.000000) scale(0.100000,-0.100000)"
fill="#000000" stroke="none">
<path d="M1689 3973 c-1 -16 -3 -41 -4 -58 -2 -16 -3 -36 -4 -43 -1 -7 -6 -10
-13 -6 -8 5 -9 2 -5 -9 3 -9 2 -19 -2 -21 -5 -3 -11 -19 -14 -36 -4 -17 -11
-36 -17 -43 -50 -59 -55 -67 -51 -89 0 -5 -6 -8 -14 -8 -8 0 -15 -4 -15 -10 0
-13 -191 -206 -202 -202 -4 1 -8 -5 -8 -13 0 -8 -5 -15 -11 -15 -7 0 -20 -10
-30 -22 -11 -11 -19 -19 -19 -15 0 3 -13 -7 -30 -21 -16 -15 -30 -32 -30 -40
0 -7 -4 -11 -9 -8 -8 6 -61 -36 -133 -106 -21 -21 -40 -38 -43 -38 -9 0 -55
-52 -55 -61 0 -5 -7 -9 -15 -9 -7 0 -19 -8 -24 -17 -6 -10 -11 -13 -11 -8 0 6
-9 -3 -19 -18 -10 -16 -22 -29 -27 -30 -9 -2 -33 -24 -148 -132 -35 -33 -89
-83 -120 -112 -31 -29 -56 -56 -56 -60 0 -4 -16 -19 -35 -32 -19 -13 -35 -27
-35 -32 0 -5 -16 -23 -35 -40 -19 -18 -37 -40 -40 -51 -4 -10 -10 -16 -15 -13
-5 3 -11 -4 -15 -15 -4 -11 -11 -18 -16 -15 -5 4 -9 0 -9 -7 0 -7 -16 -31 -35
-53 -19 -22 -40 -52 -47 -67 -7 -15 -16 -24 -20 -22 -4 3 -8 0 -8 -7 0 -7 -6
-20 -14 -28 -8 -9 -26 -41 -42 -71 -15 -30 -30 -57 -34 -60 -8 -8 -30 -75 -30
-94 0 -9 -4 -14 -10 -11 -6 3 -10 -4 -11 -17 -1 -39 -9 -71 -21 -85 -9 -11 -8
-17 3 -24 8 -5 9 -9 3 -9 -12 0 -17 -157 -6 -175 4 -5 7 -12 7 -15 8 -52 18
-90 25 -90 4 0 13 -20 20 -45 7 -24 19 -50 26 -56 8 -6 14 -16 14 -21 0 -5 6
-16 13 -23 27 -31 38 -45 33 -45 -3 0 11 -16 30 -36 19 -20 34 -41 34 -46 0
-5 4 -7 9 -3 5 3 12 -4 16 -15 3 -11 12 -20 20 -20 8 0 17 -9 20 -20 4 -11 11
-18 16 -15 5 4 9 2 9 -3 0 -5 25 -26 55 -48 30 -21 55 -42 55 -46 0 -5 6 -8
14 -8 8 0 28 -13 45 -29 17 -16 31 -27 31 -25 0 3 19 -8 43 -23 70 -46 81 -53
107 -64 14 -6 33 -18 42 -26 10 -9 18 -13 18 -8 0 4 6 2 14 -4 19 -16 306
-161 306 -155 0 3 12 -3 27 -14 16 -10 58 -33 95 -50 37 -18 70 -37 73 -42 4
-6 11 -8 16 -5 5 4 9 1 9 -4 0 -6 6 -11 14 -11 7 0 19 -7 26 -15 7 -8 16 -13
20 -10 4 3 11 -2 14 -11 4 -9 9 -14 12 -11 3 2 16 -5 29 -17 66 -61 225 -181
225 -170 0 3 15 -5 34 -20 19 -14 38 -26 43 -26 5 0 33 -13 63 -30 62 -33 120
-61 135 -64 10 -2 53 -24 112 -57 18 -10 33 -16 33 -13 0 4 15 -5 33 -18 17
-14 41 -28 52 -31 11 -4 32 -18 47 -32 15 -14 30 -25 34 -25 4 0 35 -29 70
-65 35 -36 69 -65 76 -65 10 0 10 -2 -1 -9 -8 -5 -9 -10 -3 -12 6 -2 12 -11
14 -19 7 -34 67 -67 69 -37 1 18 9 79 14 102 2 11 4 26 4 33 1 8 6 10 14 6 6
-4 9 -4 5 0 -9 11 12 67 23 60 5 -3 9 3 9 13 0 10 11 31 25 47 14 16 25 34 25
39 0 6 3 8 6 4 5 -5 43 26 140 119 24 23 46 39 49 36 3 -3 5 2 5 11 0 9 6 20
13 24 6 4 19 22 27 38 8 17 21 36 28 43 6 7 12 19 12 26 0 8 7 19 15 26 8 7
15 21 15 31 0 9 7 25 16 33 8 9 12 16 9 16 -4 0 5 13 18 30 14 16 29 39 32 50
4 11 10 18 15 15 5 -3 11 3 14 13 6 19 110 122 165 162 18 14 40 33 49 42 9 9
19 15 24 12 4 -3 8 -1 8 5 0 5 24 24 53 41 28 18 56 39 60 46 5 8 12 12 18 9
5 -4 9 -1 9 4 0 6 6 11 14 11 8 0 21 8 28 19 7 10 18 19 23 20 12 2 119 76
140 98 9 8 18 13 21 10 3 -3 21 10 40 29 19 19 34 32 34 29 0 -3 21 15 48 41
26 26 46 51 45 56 -2 4 1 7 5 5 11 -3 72 64 72 80 0 7 4 13 10 13 5 0 12 11
16 25 3 14 10 23 15 20 4 -3 13 14 20 37 6 24 15 48 21 55 5 7 12 27 15 45 3
18 9 35 13 38 5 3 9 58 9 123 0 70 -4 115 -10 112 -5 -4 -9 2 -10 12 -2 37
-10 73 -26 113 -6 14 -13 42 -17 63 -4 20 -11 37 -15 37 -5 0 -11 14 -15 31
-3 17 -10 28 -16 24 -6 -4 -10 -3 -8 2 3 12 -25 94 -30 88 -4 -4 -28 33 -50
80 -6 12 -17 27 -26 34 -9 7 -16 20 -16 28 0 8 -4 12 -9 8 -5 -3 -12 3 -16 14
-3 10 -17 31 -31 47 -14 16 -34 43 -45 59 -10 17 -19 26 -19 22 0 -7 -16 8
-61 60 -9 10 -25 26 -35 35 -10 10 -30 29 -43 42 -14 14 -28 23 -33 20 -4 -3
-8 0 -8 6 0 12 -24 40 -35 40 -4 0 -20 14 -36 31 -16 17 -29 27 -29 23 0 -5
-5 -1 -11 9 -5 9 -14 17 -19 17 -5 0 -21 11 -36 25 -15 14 -31 25 -35 25 -4 0
-20 11 -35 25 -15 14 -33 25 -39 25 -7 0 -15 7 -19 15 -3 8 -9 15 -13 14 -15
-2 -53 13 -53 22 0 5 -24 23 -52 40 -29 16 -75 44 -103 61 -49 30 -79 47 -152
89 -21 12 -51 31 -67 42 -17 12 -44 29 -60 38 -62 33 -82 45 -114 67 -17 13
-32 20 -32 15 0 -4 -4 -3 -8 3 -10 15 -95 69 -104 66 -5 -1 -8 2 -8 7 0 11
-50 44 -67 44 -7 0 -13 5 -13 11 0 6 -25 28 -55 49 -30 21 -55 43 -55 48 0 6
-3 8 -7 6 -5 -2 -33 22 -65 55 -31 32 -54 58 -51 58 3 0 -2 11 -11 25 -9 14
-13 25 -9 25 5 0 2 4 -6 9 -8 5 -16 32 -19 65 l-4 56 -169 0 -169 0 -1 -27z
m321 -1193 c0 -5 -5 -10 -11 -10 -5 0 -7 5 -4 10 3 6 8 10 11 10 2 0 4 -4 4
-10z m-1280 -274 c0 -2 -7 -7 -16 -10 -8 -3 -12 -2 -9 4 6 10 25 14 25 6z
m1325 -95 c3 -5 2 -12 -3 -15 -5 -3 -9 1 -9 9 0 17 3 19 12 6z m-132 -506 c-3
-9 -8 -14 -10 -11 -3 3 -2 9 2 15 9 16 15 13 8 -4z m-1640 -60 c-3 -9 -8 -14
-10 -11 -3 3 -2 9 2 15 9 16 15 13 8 -4z m1682 -105 c3 -6 -1 -7 -9 -4 -18 7
-21 14 -7 14 6 0 13 -4 16 -10z m200 1 c3 -5 2 -12 -3 -15 -5 -3 -9 1 -9 9 0
17 3 19 12 6z m-275 -35 c0 -3 -4 -8 -10 -11 -5 -3 -10 -1 -10 4 0 6 5 11 10
11 6 0 10 -2 10 -4z m100 -40 c0 -3 -4 -8 -10 -11 -5 -3 -10 -1 -10 4 0 6 5
11 10 11 6 0 10 -2 10 -4z m56 -88 c3 -4 -1 -5 -10 -4 -8 1 -18 5 -22 8 -3 4
1 5 10 4 8 -1 18 -5 22 -8z m51 -100 c-3 -8 -6 -5 -6 6 -1 11 2 17 5 13 3 -3
4 -12 1 -19z m-267 -234 c0 -8 -19 -13 -24 -6 -3 5 1 9 9 9 8 0 15 -2 15 -3z
m571 -51 c13 -16 12 -17 -3 -4 -17 13 -22 21 -14 21 2 0 10 -8 17 -17z m-1106
-113 c3 -6 -1 -7 -9 -4 -18 7 -21 14 -7 14 6 0 13 -4 16 -10z m899 -356 c3 -8
2 -12 -4 -9 -6 3 -10 10 -10 16 0 14 7 11 14 -7z"/>
<path d="M2218 3993 c6 -2 18 -2 25 0 6 3 1 5 -13 5 -14 0 -19 -2 -12 -5z"/>
</g>
</svg>
